<mxfile host="app.diagrams.net" modified="2023-11-07T07:00:07.137Z" agent="Mozilla/5.0 (Macintosh; Intel Mac OS X 10.15; rv:109.0) Gecko/20100101 Firefox/119.0" version="22.0.8" etag="kneH4FWuOPyF4QD74q5Q" type="github">
  <diagram name="第 1 页" id="SI1QJTIsED8v_P9dLFiD">
    <mxGraphModel>
      <root>
        <mxCell id="0" />
        <mxCell id="1" parent="0" />
      </root>
    </mxGraphModel>
  </diagram>
</mxfile>
